<svg xmlns="http://www.w3.org/2000/svg" viewBox="0 0 512 512">
  <defs>
    <linearGradient id="bg" x1="0" y1="0" x2="1" y2="1">
      <stop offset="0%" stop-color="#0d6efd"/>
      <stop offset="100%" stop-color="#6f42c1"/>
    </linearGradient>
    <linearGradient id="gloss" x1="0" y1="0" x2="0" y2="1">
      <stop offset="0%" stop-color="#ffffff" stop-opacity="0.3"/>
      <stop offset="60%" stop-color="#ffffff" stop-opacity="0"/>
    </linearGradient>
  </defs>
  <rect width="512" height="512" rx="112" fill="url(#bg)"/>
  <rect width="512" height="512" rx="112" fill="url(#gloss)"/>
  <g transform="translate(96 96)" fill="none" stroke="#fff" stroke-width="28" stroke-linecap="round" stroke-linejoin="round">
    <path d="M316 236v44c0 20-16 36-36 36a252 252 0 0 1-110-40 250 250 0 0 1-76-76 252 252 0 0 1-40-110c0-20 16-36 36-36h44c18 0 33 13 36 31 2 14 6 27 10 40a30 30 0 0 1-7 31l-18 18a216 216 0 0 0 84 84l18-18a30 30 0 0 1 31-7c13 4 26 8 40 10 18 3 31 18 31 36z"/>
  </g>
</svg>
